<mxfile host="app.diagrams.net" modified="2022-10-06T17:59:27.906Z" agent="5.0 (X11; Linux x86_64) AppleWebKit/537.36 (KHTML, like Gecko) Chrome/106.0.0.0 Safari/537.36" etag="q5m0XPwe3JBfPCiTaKPD" version="20.4.0" type="github">
  <diagram id="C5RBs43oDa-KdzZeNtuy" name="Page-1">
    <mxGraphModel dx="1374" dy="805" grid="1" gridSize="10" guides="1" tooltips="1" connect="1" arrows="1" fold="1" page="1" pageScale="1" pageWidth="827" pageHeight="1169" math="0" shadow="0">
      <root>
        <mxCell id="WIyWlLk6GJQsqaUBKTNV-0" />
        <mxCell id="WIyWlLk6GJQsqaUBKTNV-1" parent="WIyWlLk6GJQsqaUBKTNV-0" />
        <mxCell id="a7n3iAoCKdTrcNTLHIAQ-0" value="&lt;font size=&quot;3&quot;&gt;REQUEST&lt;/font&gt;" style="rounded=0;whiteSpace=wrap;html=1;" vertex="1" parent="WIyWlLk6GJQsqaUBKTNV-1">
          <mxGeometry x="334" y="180" width="120" height="60" as="geometry" />
        </mxCell>
        <mxCell id="a7n3iAoCKdTrcNTLHIAQ-1" value="&lt;font size=&quot;3&quot;&gt;RESPONSE&lt;/font&gt;" style="rounded=0;whiteSpace=wrap;html=1;" vertex="1" parent="WIyWlLk6GJQsqaUBKTNV-1">
          <mxGeometry x="514" y="180" width="120" height="60" as="geometry" />
        </mxCell>
        <mxCell id="a7n3iAoCKdTrcNTLHIAQ-2" value="&lt;font size=&quot;3&quot;&gt;API LAYER/ CONTROLLER LAYER&lt;/font&gt;" style="rounded=0;whiteSpace=wrap;html=1;" vertex="1" parent="WIyWlLk6GJQsqaUBKTNV-1">
          <mxGeometry x="94" y="310" width="640" height="60" as="geometry" />
        </mxCell>
        <mxCell id="a7n3iAoCKdTrcNTLHIAQ-3" value="&lt;font size=&quot;3&quot;&gt;SERVICE LAYER&lt;/font&gt;" style="rounded=0;whiteSpace=wrap;html=1;" vertex="1" parent="WIyWlLk6GJQsqaUBKTNV-1">
          <mxGeometry x="94" y="430" width="640" height="60" as="geometry" />
        </mxCell>
        <mxCell id="a7n3iAoCKdTrcNTLHIAQ-4" value="&lt;font size=&quot;3&quot;&gt;DATA ACCESS LAYER&lt;/font&gt;" style="rounded=0;whiteSpace=wrap;html=1;" vertex="1" parent="WIyWlLk6GJQsqaUBKTNV-1">
          <mxGeometry x="94" y="560" width="640" height="60" as="geometry" />
        </mxCell>
        <mxCell id="a7n3iAoCKdTrcNTLHIAQ-5" value="&lt;font style=&quot;font-size: 13px;&quot;&gt;HTTP; GET, POST, DELETE&lt;br&gt;&lt;/font&gt;" style="rounded=0;whiteSpace=wrap;html=1;" vertex="1" parent="WIyWlLk6GJQsqaUBKTNV-1">
          <mxGeometry x="104" y="291" width="270" height="30" as="geometry" />
        </mxCell>
        <mxCell id="a7n3iAoCKdTrcNTLHIAQ-6" value="&lt;font style=&quot;font-size: 13px;&quot;&gt;BUSINESS LOGIC&lt;br&gt;&lt;/font&gt;" style="rounded=0;whiteSpace=wrap;html=1;" vertex="1" parent="WIyWlLk6GJQsqaUBKTNV-1">
          <mxGeometry x="104" y="410" width="270" height="30" as="geometry" />
        </mxCell>
        <mxCell id="a7n3iAoCKdTrcNTLHIAQ-7" value="&lt;font style=&quot;font-size: 13px;&quot;&gt;DATABASE&lt;br&gt;&lt;/font&gt;" style="rounded=0;whiteSpace=wrap;html=1;" vertex="1" parent="WIyWlLk6GJQsqaUBKTNV-1">
          <mxGeometry x="104" y="540" width="270" height="30" as="geometry" />
        </mxCell>
        <mxCell id="a7n3iAoCKdTrcNTLHIAQ-9" value="" style="endArrow=classic;html=1;rounded=0;fontSize=13;" edge="1" parent="WIyWlLk6GJQsqaUBKTNV-1" source="a7n3iAoCKdTrcNTLHIAQ-0">
          <mxGeometry width="50" height="50" relative="1" as="geometry">
            <mxPoint x="394" y="290" as="sourcePoint" />
            <mxPoint x="394" y="310.71067811865476" as="targetPoint" />
          </mxGeometry>
        </mxCell>
        <mxCell id="a7n3iAoCKdTrcNTLHIAQ-11" value="" style="endArrow=classic;html=1;rounded=0;fontSize=13;" edge="1" parent="WIyWlLk6GJQsqaUBKTNV-1">
          <mxGeometry width="50" height="50" relative="1" as="geometry">
            <mxPoint x="404" y="369.29" as="sourcePoint" />
            <mxPoint x="404" y="430" as="targetPoint" />
          </mxGeometry>
        </mxCell>
        <mxCell id="a7n3iAoCKdTrcNTLHIAQ-12" value="" style="endArrow=classic;html=1;rounded=0;fontSize=13;entryX=0.484;entryY=-0.033;entryDx=0;entryDy=0;entryPerimeter=0;" edge="1" parent="WIyWlLk6GJQsqaUBKTNV-1" target="a7n3iAoCKdTrcNTLHIAQ-4">
          <mxGeometry width="50" height="50" relative="1" as="geometry">
            <mxPoint x="404" y="489.99999999999994" as="sourcePoint" />
            <mxPoint x="404" y="550.71" as="targetPoint" />
          </mxGeometry>
        </mxCell>
        <mxCell id="a7n3iAoCKdTrcNTLHIAQ-13" value="" style="shape=umlActor;verticalLabelPosition=bottom;verticalAlign=top;html=1;outlineConnect=0;fontSize=13;" vertex="1" parent="WIyWlLk6GJQsqaUBKTNV-1">
          <mxGeometry x="374" y="120" width="30" height="60" as="geometry" />
        </mxCell>
        <mxCell id="a7n3iAoCKdTrcNTLHIAQ-15" value="" style="endArrow=classic;html=1;rounded=0;fontSize=13;" edge="1" parent="WIyWlLk6GJQsqaUBKTNV-1">
          <mxGeometry width="50" height="50" relative="1" as="geometry">
            <mxPoint x="610" y="310" as="sourcePoint" />
            <mxPoint x="610" y="240" as="targetPoint" />
          </mxGeometry>
        </mxCell>
        <mxCell id="a7n3iAoCKdTrcNTLHIAQ-16" value="" style="endArrow=none;html=1;rounded=0;fontSize=13;" edge="1" parent="WIyWlLk6GJQsqaUBKTNV-1">
          <mxGeometry width="50" height="50" relative="1" as="geometry">
            <mxPoint x="610" y="430" as="sourcePoint" />
            <mxPoint x="610" y="370" as="targetPoint" />
          </mxGeometry>
        </mxCell>
        <mxCell id="a7n3iAoCKdTrcNTLHIAQ-17" value="" style="endArrow=none;html=1;rounded=0;fontSize=13;exitX=0.806;exitY=0;exitDx=0;exitDy=0;exitPerimeter=0;" edge="1" parent="WIyWlLk6GJQsqaUBKTNV-1" source="a7n3iAoCKdTrcNTLHIAQ-4">
          <mxGeometry width="50" height="50" relative="1" as="geometry">
            <mxPoint x="610.0000000000001" y="548.02" as="sourcePoint" />
            <mxPoint x="610.16" y="490" as="targetPoint" />
          </mxGeometry>
        </mxCell>
      </root>
    </mxGraphModel>
  </diagram>
</mxfile>
